<svg width="28" height="29" viewBox="0 0 28 29" fill="none" xmlns="http://www.w3.org/2000/svg">
<path d="M25.375 14.5C25.375 7.99369 20.282 2.71875 14 2.71875C7.71805 2.71875 2.625 7.99369 2.625 14.5C2.625 21.0063 7.71805 26.2812 14 26.2812C20.282 26.2812 25.375 21.0063 25.375 14.5ZM13.7457 19.6747C13.6641 19.5909 13.5993 19.4912 13.5548 19.3814C13.5104 19.2717 13.4873 19.1539 13.4869 19.0349C13.4864 18.9158 13.5086 18.7979 13.5522 18.6877C13.5957 18.5776 13.6598 18.4774 13.7408 18.3929L16.602 15.4062H9.29688C9.06481 15.4062 8.84225 15.3108 8.67816 15.1408C8.51406 14.9709 8.42188 14.7404 8.42188 14.5C8.42188 14.2596 8.51406 14.0291 8.67816 13.8592C8.84225 13.6892 9.06481 13.5938 9.29688 13.5938H16.602L13.7408 10.6071C13.6598 10.5225 13.5958 10.4223 13.5523 10.312C13.5087 10.2018 13.4866 10.0838 13.4871 9.96475C13.4876 9.84567 13.5107 9.72786 13.5552 9.61805C13.5997 9.50824 13.6646 9.40857 13.7463 9.32475C13.8279 9.24092 13.9247 9.17457 14.0311 9.12949C14.1375 9.0844 14.2515 9.06147 14.3664 9.062C14.5986 9.06306 14.8209 9.15961 14.9844 9.33041L19.326 13.8617C19.4887 14.0314 19.5799 14.2609 19.5799 14.5C19.5799 14.7391 19.4887 14.9686 19.326 15.1383L14.9844 19.6696C14.9034 19.7543 14.8071 19.8216 14.701 19.8677C14.5949 19.9138 14.4811 19.9377 14.3661 19.9382C14.251 19.9387 14.137 19.9157 14.0305 19.8704C13.9241 19.8252 13.8273 19.7587 13.7457 19.6747Z" fill="white"/>
</svg>
