<svg width="141" height="57" viewBox="0 0 141 57" fill="none" xmlns="http://www.w3.org/2000/svg">
<path d="M9.06 30.96C8.76667 32.5067 8.23333 33.6933 7.46 34.52C6.68667 35.3467 5.72667 35.76 4.58 35.76C3.5 35.76 2.53333 35.3333 1.68 34.48C0.826667 33.64 0.333333 32.6333 0.2 31.46C0.6 31.1133 1.04667 30.84 1.54 30.64C2.03333 30.4267 2.58 30.28 3.18 30.2C3.36667 31.4133 3.54667 32.2133 3.72 32.6C3.90667 32.9867 4.14667 33.18 4.44 33.18C4.84 33.18 5.12667 32.9 5.3 32.34C5.47333 31.7667 5.56 30.8667 5.56 29.64C5.56 28.2533 5.50667 26.6867 5.4 24.94C5.29333 23.1933 5.14667 21.6 4.96 20.16C5.26667 19.9467 5.66667 19.78 6.16 19.66C6.65333 19.54 7.16667 19.48 7.7 19.48C8.07333 19.48 8.41333 19.5 8.72 19.54C9.02667 19.58 9.33333 19.64 9.64 19.72C9.65333 20.1333 9.66667 20.6 9.68 21.12C9.69333 21.6267 9.7 22.1667 9.7 22.74C9.7 24.5267 9.65333 26.0267 9.56 27.24C9.46667 28.44 9.3 29.68 9.06 30.96ZM20.6325 26.84C20.6325 27.68 20.5192 28.8267 20.2925 30.28C20.0658 31.72 19.7725 33.2067 19.4125 34.74C18.9458 34.74 18.4458 34.7067 17.9125 34.64C17.3792 34.5867 16.8592 34.5067 16.3525 34.4C16.3792 34.1733 16.3992 34 16.4125 33.88C16.4258 33.76 16.4392 33.6533 16.4525 33.56C16.1725 33.68 15.8658 33.7733 15.5325 33.84C15.1992 33.9067 14.8392 33.94 14.4525 33.94C13.3458 33.94 12.4592 33.6667 11.7925 33.12C11.1258 32.56 10.7925 31.8133 10.7925 30.88C10.7925 29.9333 11.1725 29.2267 11.9325 28.76C12.7058 28.28 13.8658 28.04 15.4125 28.04C15.9192 28.04 16.2592 28.04 16.4325 28.04C16.6058 28.04 16.7458 28.0467 16.8525 28.06C16.8392 26.8067 16.7592 25.9533 16.6125 25.5C16.4658 25.0467 16.2258 24.82 15.8925 24.82C15.5725 24.82 15.2925 25.04 15.0525 25.48C14.8258 25.9067 14.7058 26.4533 14.6925 27.12C13.8392 27.12 13.1258 26.96 12.5525 26.64C11.9925 26.32 11.6058 25.86 11.3925 25.26C11.6458 24.5667 12.2192 23.9733 13.1125 23.48C14.0058 22.9867 15.0392 22.74 16.2125 22.74C17.6658 22.74 18.7658 23.0867 19.5125 23.78C20.2592 24.4733 20.6325 25.4933 20.6325 26.84ZM14.7725 31.16C14.7725 31.4667 14.8525 31.7067 15.0125 31.88C15.1725 32.04 15.4058 32.12 15.7125 32.12C15.8992 32.12 16.0658 32.1 16.2125 32.06C16.3592 32.02 16.5058 31.96 16.6525 31.88C16.7058 31.4133 16.7392 31.0133 16.7525 30.68C16.7792 30.3333 16.7992 30.02 16.8125 29.74C16.1192 29.78 15.6058 29.9133 15.2725 30.14C14.9392 30.3667 14.7725 30.7067 14.7725 31.16ZM31.0272 31.6C31.0272 32.2267 30.9739 32.8267 30.8672 33.4C30.7739 33.9733 30.6339 34.4867 30.4472 34.94C28.8205 34.9267 27.1672 34.7867 25.4872 34.52C23.8205 34.2667 22.5005 33.9267 21.5272 33.5C21.5272 33.14 21.5539 32.76 21.6072 32.36C21.6739 31.9467 21.7539 31.6 21.8472 31.32C22.7539 30.2267 23.7139 29.1933 24.7272 28.22C25.7539 27.2467 26.7605 26.4 27.7472 25.68C26.8939 25.68 25.9672 25.7067 24.9672 25.76C23.9672 25.8 23.0939 25.86 22.3472 25.94C22.3472 25.2733 22.4072 24.6867 22.5272 24.18C22.6472 23.6733 22.8405 23.1667 23.1072 22.66C24.8405 22.7133 26.4339 22.86 27.8872 23.1C29.3539 23.34 30.6739 23.68 31.8472 24.12C31.7805 24.6133 31.6939 25.0733 31.5872 25.5C31.4805 25.9267 31.3539 26.2933 31.2072 26.6C29.9672 27.6533 28.8472 28.6733 27.8472 29.66C26.8605 30.6467 26.1005 31.5 25.5672 32.22C26.9939 32.18 28.0672 32.1133 28.7872 32.02C29.5205 31.9267 30.2672 31.7867 31.0272 31.6ZM41.6522 31.6C41.6522 32.2267 41.5989 32.8267 41.4922 33.4C41.3989 33.9733 41.2589 34.4867 41.0722 34.94C39.4455 34.9267 37.7922 34.7867 36.1122 34.52C34.4455 34.2667 33.1255 33.9267 32.1522 33.5C32.1522 33.14 32.1789 32.76 32.2322 32.36C32.2989 31.9467 32.3789 31.6 32.4722 31.32C33.3789 30.2267 34.3389 29.1933 35.3522 28.22C36.3789 27.2467 37.3855 26.4 38.3722 25.68C37.5189 25.68 36.5922 25.7067 35.5922 25.76C34.5922 25.8 33.7189 25.86 32.9722 25.94C32.9722 25.2733 33.0322 24.6867 33.1522 24.18C33.2722 23.6733 33.4655 23.1667 33.7322 22.66C35.4655 22.7133 37.0589 22.86 38.5122 23.1C39.9789 23.34 41.2989 23.68 42.4722 24.12C42.4055 24.6133 42.3189 25.0733 42.2122 25.5C42.1055 25.9267 41.9789 26.2933 41.8322 26.6C40.5922 27.6533 39.4722 28.6733 38.4722 29.66C37.4855 30.6467 36.7255 31.5 36.1922 32.22C37.6189 32.18 38.6922 32.1133 39.4122 32.02C40.1455 31.9267 40.8922 31.7867 41.6522 31.6ZM53.5925 30.62C53.5925 33.3267 53.0992 35.3867 52.1125 36.8C51.1392 38.2267 49.7458 38.94 47.9325 38.94C46.6792 38.94 45.6992 38.6267 44.9925 38C44.2992 37.3867 43.9525 36.6333 43.9525 35.74C44.3658 35.42 44.8592 35.1467 45.4325 34.92C46.0192 34.7067 46.6125 34.56 47.2125 34.48C47.3325 35.3067 47.4725 35.88 47.6325 36.2C47.7925 36.5333 48.0058 36.7 48.2725 36.7C48.6992 36.7 49.0125 36.3467 49.2125 35.64C49.4258 34.9467 49.5525 33.78 49.5925 32.14C49.2458 32.66 48.8525 33.0467 48.4125 33.3C47.9858 33.5533 47.4992 33.68 46.9525 33.68C45.9392 33.68 45.0925 33.22 44.4125 32.3C43.7458 31.3667 43.4125 30.1933 43.4125 28.78C43.4125 27.8867 43.4725 27.04 43.5925 26.24C43.7125 25.4267 43.9325 24.42 44.2525 23.22C44.9325 23.22 45.5725 23.2533 46.1725 23.32C46.7858 23.3733 47.4392 23.4667 48.1325 23.6C47.8658 24.6267 47.6792 25.5067 47.5725 26.24C47.4658 26.9733 47.4125 27.7467 47.4125 28.56C47.4125 29.2267 47.4992 29.78 47.6725 30.22C47.8458 30.6467 48.0792 30.86 48.3725 30.86C48.6125 30.86 48.8258 30.7733 49.0125 30.6C49.2125 30.4133 49.3925 30.1333 49.5525 29.76C49.4992 28.76 49.3925 27.7133 49.2325 26.62C49.0725 25.5133 48.9192 24.72 48.7725 24.24C49.2392 24.0667 49.8392 23.9333 50.5725 23.84C51.3058 23.7467 52.0658 23.7 52.8525 23.7C53.0392 24.34 53.2058 25.36 53.3525 26.76C53.5125 28.1467 53.5925 29.4333 53.5925 30.62ZM55.5927 19.28C56.1527 19.2267 56.7393 19.2267 57.3527 19.28C57.966 19.32 58.5327 19.4133 59.0527 19.56C59.0393 20.3467 58.946 21.0867 58.7727 21.78C58.6127 22.46 58.3193 23.3333 57.8927 24.4C57.3993 24.3867 56.9127 24.3533 56.4327 24.3C55.966 24.2333 55.546 24.1467 55.1727 24.04C55.3593 23.1067 55.486 22.2533 55.5527 21.48C55.6193 20.7067 55.6327 19.9733 55.5927 19.28ZM64.9877 27.28C66.1877 28 66.9877 28.6467 67.3877 29.22C67.801 29.7933 68.0077 30.4333 68.0077 31.14C68.0077 32.22 67.541 33.12 66.6077 33.84C65.6743 34.5467 64.5343 34.9 63.1877 34.9C62.041 34.9 61.081 34.5533 60.3077 33.86C59.5343 33.1667 59.1477 32.3467 59.1477 31.4C59.4543 31.2533 59.861 31.1333 60.3677 31.04C60.8743 30.9333 61.3277 30.88 61.7277 30.88C61.7277 31.4667 61.8477 31.94 62.0877 32.3C62.341 32.66 62.6943 32.84 63.1477 32.84C63.481 32.84 63.7343 32.7667 63.9077 32.62C64.081 32.4733 64.1677 32.26 64.1677 31.98C64.1677 31.7 64.0543 31.4267 63.8277 31.16C63.6143 30.8933 63.1277 30.5267 62.3677 30.06C61.2343 29.3533 60.481 28.7333 60.1077 28.2C59.7343 27.6533 59.5477 27.04 59.5477 26.36C59.5477 25.2933 59.9543 24.4133 60.7677 23.72C61.5943 23.0133 62.6477 22.66 63.9277 22.66C65.1943 22.66 66.221 22.94 67.0077 23.5C67.8077 24.06 68.3143 24.8467 68.5277 25.86C68.141 26.1133 67.701 26.3133 67.2077 26.46C66.7143 26.5933 66.0677 26.6867 65.2677 26.74C65.1743 26.1133 65.0277 25.66 64.8277 25.38C64.641 25.0867 64.381 24.94 64.0477 24.94C63.821 24.94 63.641 25.0067 63.5077 25.14C63.3877 25.2733 63.3277 25.4533 63.3277 25.68C63.3277 25.8933 63.4277 26.1133 63.6277 26.34C63.8277 26.5533 64.281 26.8667 64.9877 27.28ZM85.6827 28.66C85.6827 30.2733 85.0627 31.6333 83.8227 32.74C82.596 33.8467 81.0893 34.4 79.3027 34.4C78.6493 34.4 77.9827 34.3 77.3027 34.1C76.636 33.9 75.976 33.6 75.3227 33.2C75.1493 31.6667 75.016 30.08 74.9227 28.44C74.8427 26.8 74.8027 25.0667 74.8027 23.24C74.8027 22.44 74.8027 21.84 74.8027 21.44C74.816 21.04 74.8293 20.6667 74.8427 20.32C75.6027 19.9467 76.396 19.66 77.2227 19.46C78.0493 19.26 78.8693 19.16 79.6827 19.16C81.3093 19.16 82.5493 19.4467 83.4027 20.02C84.256 20.58 84.6827 21.3933 84.6827 22.46C84.6827 23.1133 84.536 23.7067 84.2427 24.24C83.9627 24.76 83.5427 25.2133 82.9827 25.6C83.836 25.8533 84.496 26.2533 84.9627 26.8C85.4427 27.3333 85.6827 27.9533 85.6827 28.66ZM80.7827 23.02C80.7827 22.4867 80.636 22.0867 80.3427 21.82C80.0493 21.5533 79.616 21.42 79.0427 21.42H78.9827C78.916 22.1667 78.856 22.88 78.8027 23.56C78.7627 24.2267 78.7293 24.8667 78.7027 25.48C79.3827 25.3333 79.896 25.0467 80.2427 24.62C80.6027 24.1933 80.7827 23.66 80.7827 23.02ZM78.6427 31.72C78.8293 31.8133 79.0027 31.8867 79.1627 31.94C79.3227 31.98 79.4827 32 79.6427 32C80.176 32 80.6427 31.74 81.0427 31.22C81.4427 30.7 81.6427 30.1133 81.6427 29.46C81.6427 28.9133 81.4827 28.5 81.1627 28.22C80.856 27.9267 80.4027 27.78 79.8027 27.78C79.6293 27.78 79.4493 27.8 79.2627 27.84C79.076 27.88 78.8693 27.9467 78.6427 28.04C78.6293 28.2267 78.6227 28.4267 78.6227 28.64C78.6227 28.84 78.6227 29.1533 78.6227 29.58C78.6227 30.18 78.6227 30.6267 78.6227 30.92C78.6227 31.2133 78.6293 31.48 78.6427 31.72ZM91.1895 34.2C89.7762 34.2 88.7029 33.7267 87.9695 32.78C87.2362 31.8333 86.8695 30.4733 86.8695 28.7C86.8695 27.7267 86.9695 26.7133 87.1695 25.66C87.3829 24.5933 87.5895 23.8667 87.7895 23.48C88.0962 23.4 88.4029 23.34 88.7095 23.3C89.0295 23.26 89.3229 23.24 89.5895 23.24C90.0029 23.24 90.3562 23.2667 90.6495 23.32C90.9562 23.3733 91.1895 23.4467 91.3495 23.54C91.2295 24.26 91.1362 24.9933 91.0695 25.74C91.0029 26.4867 90.9695 27.2067 90.9695 27.9C90.9695 29.1267 91.0429 30.0867 91.1895 30.78C91.3362 31.46 91.5429 31.8 91.8095 31.8C92.0629 31.8 92.2629 31.4067 92.4095 30.62C92.5562 29.8333 92.6295 28.8067 92.6295 27.54C92.6295 26.94 92.6029 26.32 92.5495 25.68C92.4962 25.0267 92.4429 24.5733 92.3895 24.32C92.8962 24.1067 93.5229 23.94 94.2695 23.82C95.0162 23.6867 95.7429 23.62 96.4495 23.62C96.5162 23.9267 96.5629 24.32 96.5895 24.8C96.6295 25.28 96.6495 25.8 96.6495 26.36C96.6495 28.92 96.1895 30.8667 95.2695 32.2C94.3495 33.5333 92.9895 34.2 91.1895 34.2ZM102.326 29.94C102.353 30.5933 102.399 31.2667 102.466 31.96C102.546 32.64 102.639 33.3267 102.746 34.02C102.413 34.14 102.039 34.22 101.626 34.26C101.213 34.3 100.759 34.3 100.266 34.26C99.9861 34.2333 99.7594 34.2 99.5861 34.16C99.4128 34.12 99.2461 34.0733 99.0861 34.02C98.7261 32.46 98.4661 30.68 98.3061 28.68C98.1461 26.6667 98.1261 24.9 98.2461 23.38C98.5394 23.2867 98.8594 23.22 99.2061 23.18C99.5528 23.1267 99.9194 23.1 100.306 23.1C100.759 23.1 101.179 23.1333 101.566 23.2C101.966 23.2667 102.319 23.36 102.626 23.48C102.573 23.68 102.526 23.92 102.486 24.2C102.446 24.4667 102.413 24.7667 102.386 25.1C102.719 24.34 103.126 23.7467 103.606 23.32C104.086 22.88 104.579 22.66 105.086 22.66C105.833 22.66 106.426 22.9733 106.866 23.6C107.306 24.2133 107.526 25.0667 107.526 26.16C107.526 26.3467 107.526 26.4933 107.526 26.6C107.526 26.6933 107.519 26.78 107.506 26.86C107.093 27.0067 106.573 27.1067 105.946 27.16C105.333 27.2133 104.666 27.22 103.946 27.18C103.959 26.98 103.966 26.8467 103.966 26.78C103.979 26.7 103.986 26.6267 103.986 26.56C103.986 26.2267 103.946 25.9733 103.866 25.8C103.786 25.6133 103.666 25.52 103.506 25.52C103.253 25.52 103.019 25.9067 102.806 26.68C102.593 27.4533 102.433 28.54 102.326 29.94ZM112.078 28.3C112.078 29.2733 112.231 30.0533 112.538 30.64C112.845 31.2133 113.231 31.5 113.698 31.5C113.791 31.5 113.885 31.4733 113.978 31.42C114.071 31.3533 114.158 31.2667 114.238 31.16V31C114.238 30.24 114.185 29.3667 114.078 28.38C113.985 27.3933 113.858 26.4467 113.698 25.54C113.658 25.5267 113.611 25.52 113.558 25.52C113.518 25.52 113.451 25.52 113.358 25.52C112.918 25.52 112.591 25.7467 112.378 26.2C112.178 26.6533 112.078 27.3533 112.078 28.3ZM118.238 30.62C118.238 33.3267 117.745 35.3867 116.758 36.8C115.785 38.2267 114.391 38.94 112.578 38.94C111.325 38.94 110.345 38.6267 109.638 38C108.945 37.3867 108.598 36.6333 108.598 35.74C109.011 35.42 109.505 35.1467 110.078 34.92C110.665 34.7067 111.258 34.56 111.858 34.48C111.978 35.3067 112.118 35.88 112.278 36.2C112.438 36.5333 112.651 36.7 112.918 36.7C113.291 36.7 113.585 36.4133 113.798 35.84C114.011 35.28 114.145 34.3933 114.198 33.18C113.945 33.4333 113.671 33.62 113.378 33.74C113.085 33.86 112.758 33.92 112.398 33.92C111.131 33.92 110.111 33.48 109.338 32.6C108.565 31.72 108.178 30.5667 108.178 29.14C108.178 27.18 108.665 25.7 109.638 24.7C110.625 23.6867 112.078 23.18 113.998 23.18C114.491 23.18 115.058 23.2267 115.698 23.32C116.338 23.4133 116.938 23.54 117.498 23.7C117.685 24.34 117.851 25.36 117.998 26.76C118.158 28.1467 118.238 29.4333 118.238 30.62ZM123.961 27.08C124.121 27.12 124.274 27.1533 124.421 27.18C124.581 27.1933 124.714 27.2 124.821 27.2C124.928 27.2 125.048 27.2 125.181 27.2C125.328 27.1867 125.428 27.1733 125.481 27.16C125.561 26.84 125.621 26.54 125.661 26.26C125.714 25.98 125.741 25.7267 125.741 25.5C125.741 25.22 125.701 25.0133 125.621 24.88C125.554 24.7467 125.448 24.68 125.301 24.68C125.034 24.68 124.781 24.9 124.541 25.34C124.301 25.7667 124.108 26.3467 123.961 27.08ZM126.381 30.16C126.888 30.2533 127.401 30.44 127.921 30.72C128.454 30.9867 128.888 31.2933 129.221 31.64C129.114 31.9867 128.868 32.36 128.481 32.76C128.094 33.16 127.634 33.4933 127.101 33.76C126.674 33.9733 126.208 34.1333 125.701 34.24C125.208 34.36 124.688 34.42 124.141 34.42C122.754 34.42 121.668 34.02 120.881 33.22C120.108 32.4067 119.721 31.3067 119.721 29.92C119.721 29.0533 119.854 28.2067 120.121 27.38C120.401 26.54 120.794 25.78 121.301 25.1C121.874 24.34 122.534 23.7467 123.281 23.32C124.028 22.8933 124.794 22.68 125.581 22.68C126.701 22.68 127.594 22.9667 128.261 23.54C128.928 24.1 129.261 24.8533 129.261 25.8C129.261 26.2267 129.214 26.7 129.121 27.22C129.041 27.7267 128.934 28.1667 128.801 28.54C128.388 28.74 127.874 28.8933 127.261 29C126.661 29.0933 125.941 29.14 125.101 29.14C124.861 29.14 124.621 29.1267 124.381 29.1C124.154 29.0733 123.928 29.04 123.701 29C123.688 29.08 123.681 29.1733 123.681 29.28C123.681 29.3733 123.681 29.52 123.681 29.72C123.681 30.52 123.781 31.1333 123.981 31.56C124.194 31.9867 124.494 32.2 124.881 32.2C125.134 32.2 125.408 31.9933 125.701 31.58C125.994 31.1667 126.221 30.6933 126.381 30.16ZM135.1 29.94C135.126 30.5933 135.173 31.2667 135.24 31.96C135.32 32.64 135.413 33.3267 135.52 34.02C135.186 34.14 134.813 34.22 134.4 34.26C133.986 34.3 133.533 34.3 133.04 34.26C132.76 34.2333 132.533 34.2 132.36 34.16C132.186 34.12 132.02 34.0733 131.86 34.02C131.5 32.46 131.24 30.68 131.08 28.68C130.92 26.6667 130.9 24.9 131.02 23.38C131.313 23.2867 131.633 23.22 131.98 23.18C132.326 23.1267 132.693 23.1 133.08 23.1C133.533 23.1 133.953 23.1333 134.34 23.2C134.74 23.2667 135.093 23.36 135.4 23.48C135.346 23.68 135.3 23.92 135.26 24.2C135.22 24.4667 135.186 24.7667 135.16 25.1C135.493 24.34 135.9 23.7467 136.38 23.32C136.86 22.88 137.353 22.66 137.86 22.66C138.606 22.66 139.2 22.9733 139.64 23.6C140.08 24.2133 140.3 25.0667 140.3 26.16C140.3 26.3467 140.3 26.4933 140.3 26.6C140.3 26.6933 140.293 26.78 140.28 26.86C139.866 27.0067 139.346 27.1067 138.72 27.16C138.106 27.2133 137.44 27.22 136.72 27.18C136.733 26.98 136.74 26.8467 136.74 26.78C136.753 26.7 136.76 26.6267 136.76 26.56C136.76 26.2267 136.72 25.9733 136.64 25.8C136.56 25.6133 136.44 25.52 136.28 25.52C136.026 25.52 135.793 25.9067 135.58 26.68C135.366 27.4533 135.206 28.54 135.1 29.94Z" fill="#FF1818"/>
<rect x="47" y="40" width="36" height="3" rx="1.5" fill="#4FCF4C"/>
<rect x="47" y="13" width="36" height="3" rx="1.5" fill="#4FCF4C"/>
<path d="M52 12C52 5.37258 57.3726 0 64 0H67C73.6274 0 79 5.37258 79 12H52Z" fill="#C2862C"/>
<path d="M51 45C51 51.6274 56.3726 57 63 57H67C73.6274 57 79 51.6274 79 45H51Z" fill="#C2862C"/>
</svg>
